PathFileType   4   (X/Y/Z)
DataRate  CameraRate  NumFrames  NumMarkers  Units  OrigDataRate  OrigDataStartFrame  OrigNumFrames  
  120.0      120.0        10         37         mm      120.0          1        160
Frame#      Time                    midhip                           hip_r                           hip_l                          knee_r                          knee_l                         ankle_r                         ankle_l                         midasis                          asis_r                          asis_l                          psis_r                          psis_l                    epicondLat_r                    epicondLat_l                    epicondMed_r                    epicondMed_l                  malleolusLat_r                  malleolusLat_l                 malleolusMedv_r                 malleolusMedv_l                            neck                   subclavicle_r                   subclavicle_l                    sternalnotch                  xyphoidprocess                     thighwand_r                     thighwand_l                     upperleg1_r                     upperleg1_l                     upperleg2_r                     upperleg2_l                     shankwand_r                     shankwand_l                     lowerleg1_r                     lowerleg1_l                           toe_r                           toe_l            
              X1          Y1          Z1          X2          Y2          Z2          X3          Y3          Z3          X4          Y4          Z4          X5          Y5          Z5          X6          Y6          Z6          X7          Y7          Z7          X8          Y8          Z8          X9          Y9          Z9          X10          Y10          Z10          X11          Y11          Z11          X12          Y12          Z12          X13          Y13          Z13          X14          Y14          Z14          X15          Y15          Z15          X16          Y16          Z16          X17          Y17          Z17          X18          Y18          Z18          X19          Y19          Z19          X20          Y20          Z20          X21          Y21          Z21          X22          Y22          Z22          X23          Y23          Z23          X24          Y24          Z24          X25          Y25          Z25          X26          Y26          Z26          X27          Y27          Z27          X28          Y28          Z28          X29          Y29          Z29          X30          Y30          Z30          X31          Y31          Z31          X32          Y32          Z32          X33          Y33          Z33          X34          Y34          Z34          X35          Y35          Z35          X36          Y36          Z36          X37          Y37          Z37          

	1	0.10000	-100.493	748.983	-259.077	-109.695	747.154	-202.420	-91.292	750.811	-315.733	-21.040	410.826	-173.060	-209.601	412.615	-326.115	44.566	64.634	-172.491	-454.944	145.581	-330.821	-70.812	823.363	-252.377	-73.426	826.705	-143.751	-68.198	820.021	-361.003	-248.782	843.653	-221.820	-244.765	843.826	-275.350	4.754	421.016	-113.102	-200.723	392.453	-384.209	0.391	414.732	-235.260	-188.649	398.914	-254.536	35.196	63.441	-136.200	-459.512	150.723	-366.667	53.683	58.805	-204.724	-459.782	151.107	-297.270	-189.760	1242.766	-231.438	-87.207	1168.890	-176.368	-75.110	1174.918	-281.605	-83.627	1171.862	-232.376	-76.079	1070.229	-239.866	68.279	592.475	-136.760	-55.543	524.307	-395.024	4.001	608.374	-106.709	-65.905	571.400	-327.155	13.883	551.085	-111.429	-87.191	514.534	-318.116	146.160	198.039	-134.402	-386.481	224.189	-454.999	76.505	173.266	-161.700	-395.937	218.427	-376.958	126.390	52.333	-152.972	-407.445	62.135	-334.495
	2	0.10833	-89.302	751.620	-256.455	-98.883	749.757	-199.863	-79.720	753.483	-313.047	-20.243	414.012	-171.812	-184.422	409.357	-325.944	44.903	64.408	-172.241	-438.225	150.804	-330.040	-59.641	825.850	-249.670	-62.959	829.139	-140.889	-56.323	822.561	-358.452	-237.487	846.077	-221.834	-233.237	846.067	-275.035	10.303	421.303	-111.932	-179.155	391.876	-383.926	0.920	419.224	-237.644	-162.415	395.633	-255.042	35.803	63.280	-135.879	-442.892	156.197	-365.836	53.537	58.544	-204.576	-441.668	155.841	-296.488	-177.405	1245.162	-228.637	-74.808	1170.854	-174.470	-62.934	1177.017	-279.638	-71.347	1173.906	-230.438	-64.128	1072.263	-238.115	76.721	591.714	-134.809	-36.833	527.364	-394.003	13.478	609.328	-104.025	-48.846	573.670	-326.515	20.935	551.245	-110.378	-66.732	517.477	-318.135	149.008	196.389	-134.618	-368.578	228.703	-454.199	78.410	172.441	-161.377	-376.663	222.324	-376.413	126.920	51.307	-152.843	-395.250	64.190	-333.669
	3	0.11667	-78.470	754.114	-253.874	-88.357	752.201	-197.336	-68.582	756.027	-310.412	-18.556	416.128	-170.510	-160.833	406.690	-325.602	45.153	64.278	-172.032	-420.050	155.265	-329.122	-48.684	828.194	-247.003	-52.601	831.378	-138.025	-44.767	825.010	-355.980	-226.264	848.583	-221.751	-221.921	848.412	-274.552	15.228	421.497	-110.747	-157.514	391.613	-383.481	2.076	421.700	-236.888	-137.314	393.162	-255.242	36.170	63.180	-135.640	-424.850	160.916	-364.862	53.655	58.354	-204.394	-422.374	160.070	-295.575	-165.498	1247.795	-225.997	-62.337	1172.786	-172.546	-50.522	1179.680	-277.449	-58.907	1176.227	-228.381	-51.679	1074.642	-236.781	84.652	590.784	-132.749	-18.526	530.742	-393.314	21.750	609.886	-101.005	-31.967	575.498	-326.315	27.339	551.116	-108.204	-47.038	519.946	-318.328	151.358	194.839	-134.390	-349.675	232.766	-453.259	80.260	171.776	-160.987	-356.818	225.776	-375.987	127.305	50.484	-152.633	-380.490	66.648	-332.813
	4	0.12500	-67.976	756.396	-251.466	-78.109	754.422	-194.974	-57.843	758.371	-307.958	-12.789	415.648	-169.273	-140.197	406.760	-324.935	45.408	64.228	-171.855	-400.518	158.883	-328.062	-37.927	830.349	-244.444	-42.329	833.380	-135.246	-33.525	827.317	-353.642	-215.124	851.099	-221.536	-210.841	850.820	-273.897	19.602	421.644	-109.584	-135.866	391.740	-382.860	8.363	420.283	-233.223	-116.464	392.219	-256.905	36.356	63.132	-135.480	-405.475	164.782	-363.740	54.360	58.155	-204.142	-402.315	163.731	-294.492	-153.645	1250.379	-223.523	-50.306	1174.809	-170.396	-38.559	1182.378	-275.506	-46.913	1178.611	-226.332	-39.763	1077.076	-235.383	92.120	589.737	-130.665	-0.626	534.445	-392.803	28.081	609.530	-99.050	-15.401	577.823	-325.635	33.395	550.959	-105.609	-29.112	521.876	-318.298	153.229	193.390	-133.639	-329.875	236.291	-452.168	82.177	171.504	-160.784	-336.635	228.919	-375.313	127.587	49.841	-152.376	-362.970	69.429	-331.896
	5	0.13333	-57.764	758.433	-249.289	-68.084	756.388	-192.833	-47.443	760.479	-305.744	-4.078	413.907	-168.103	-117.878	406.845	-324.177	45.730	64.241	-171.703	-379.723	161.590	-326.853	-27.337	832.299	-242.051	-32.119	835.133	-132.629	-22.554	829.465	-351.472	-204.104	853.589	-221.133	-199.998	853.246	-273.085	23.500	421.771	-108.486	-114.239	392.327	-382.063	18.459	417.485	-229.596	-93.031	390.349	-259.609	36.434	63.134	-135.391	-384.858	167.712	-362.468	53.997	58.461	-204.119	-382.002	166.526	-293.208	-141.445	1252.678	-221.227	-38.422	1176.770	-168.592	-26.954	1184.130	-273.818	-35.179	1180.475	-224.578	-28.569	1078.892	-233.500	99.186	588.611	-128.667	16.938	538.462	-392.275	33.474	608.599	-98.117	0.904	581.046	-324.638	39.526	550.838	-103.579	-10.706	524.340	-318.400	154.677	192.042	-132.408	-309.254	239.223	-450.920	82.829	170.864	-159.656	-316.053	231.954	-373.613	127.797	49.351	-152.117	-342.746	72.317	-330.867
	6	0.14167	-47.737	760.274	-247.353	-58.197	758.144	-190.926	-37.278	762.405	-303.780	1.897	413.473	-167.039	-93.886	405.230	-323.379	46.139	64.303	-171.572	-357.762	163.336	-325.494	-16.865	834.061	-239.854	-21.945	836.646	-130.230	-11.786	831.477	-349.478	-193.242	856.036	-220.450	-189.368	855.652	-272.139	27.007	421.889	-107.497	-92.628	393.412	-381.101	25.304	416.484	-227.665	-66.598	389.806	-258.752	36.469	63.183	-135.357	-363.092	169.639	-361.048	52.440	59.161	-204.281	-360.760	168.242	-291.774	-129.117	1254.908	-219.276	-26.004	1178.752	-166.996	-15.059	1185.881	-271.546	-23.037	1182.343	-222.633	-16.743	1080.730	-231.438	105.910	587.421	-126.870	34.281	542.766	-391.535	39.738	608.150	-97.056	17.014	584.853	-324.388	45.569	550.503	-102.127	8.379	527.983	-318.150	155.783	190.800	-130.858	-287.861	241.526	-449.522	82.135	169.465	-157.502	-294.673	234.438	-371.444	127.958	48.983	-151.891	-320.077	75.078	-329.704
	7	0.15000	-37.811	761.987	-245.669	-48.385	759.752	-189.267	-27.238	764.222	-302.070	1.991	415.031	-166.137	-71.590	404.167	-322.373	46.609	64.398	-171.459	-334.731	164.093	-323.993	-6.470	835.675	-237.857	-11.781	837.949	-128.062	-1.160	833.402	-347.651	-182.568	858.439	-219.468	-178.904	858.007	-271.082	30.219	422.008	-106.651	-71.016	394.986	-379.990	25.685	416.896	-226.139	-42.836	392.545	-254.089	36.510	63.272	-135.362	-340.272	170.526	-359.492	53.680	59.554	-204.115	-337.554	168.831	-290.251	-116.759	1257.123	-217.833	-13.750	1180.720	-165.264	-2.791	1188.217	-269.242	-10.774	1184.509	-220.617	-4.484	1082.930	-229.815	112.341	586.164	-125.370	51.513	547.311	-390.437	47.245	608.356	-95.982	32.963	589.118	-324.187	50.853	550.214	-100.912	26.549	532.299	-316.757	156.649	189.664	-129.231	-265.747	243.168	-447.992	84.186	169.802	-156.767	-271.967	235.833	-369.824	128.087	48.704	-151.724	-295.308	77.510	-328.417
	8	0.15833	-27.896	763.617	-244.232	-38.575	761.246	-187.856	-17.217	765.987	-300.608	1.868	416.649	-165.418	-51.343	405.686	-321.111	47.088	64.508	-171.372	-310.717	163.855	-322.359	3.877	837.194	-236.038	-1.616	839.084	-126.103	9.369	835.305	-345.972	-172.091	860.807	-218.167	-168.552	860.301	-269.934	33.233	422.135	-105.973	-49.406	396.995	-378.740	25.715	417.186	-224.324	-22.534	395.796	-251.009	36.582	63.392	-135.391	-316.482	170.361	-357.809	54.488	59.775	-203.978	-312.824	168.187	-288.652	-104.411	1259.418	-216.482	-2.108	1182.343	-163.693	9.356	1190.276	-267.939	1.135	1186.377	-219.190	6.973	1084.811	-228.815	118.527	584.823	-124.214	68.700	552.042	-388.906	54.410	608.292	-95.151	48.991	593.618	-322.625	55.811	550.189	-99.761	43.798	536.369	-314.694	157.379	188.629	-127.778	-242.967	244.125	-446.345	85.497	169.675	-155.997	-248.019	236.320	-368.275	128.193	48.483	-151.628	-268.788	79.492	-327.031
	9	0.16667	-17.938	765.222	-243.001	-28.711	762.663	-186.651	-7.165	767.782	-299.351	5.472	417.199	-164.911	-30.526	408.339	-319.604	47.531	64.624	-171.330	-285.797	162.642	-320.601	14.190	838.672	-234.371	8.557	840.099	-124.319	19.824	837.245	-344.423	-161.787	863.146	-216.570	-158.270	862.525	-268.704	36.136	422.273	-105.475	-27.828	399.349	-377.352	29.643	417.791	-224.371	-2.459	398.001	-250.745	36.699	63.535	-135.445	-291.797	169.163	-356.009	54.885	59.980	-203.939	-287.535	166.748	-286.912	-92.171	1261.928	-214.931	9.755	1183.968	-162.651	21.148	1191.858	-267.465	12.957	1188.001	-218.427	17.956	1086.392	-228.070	124.510	583.385	-123.397	85.846	556.902	-386.945	60.408	607.986	-94.298	64.742	598.064	-320.251	61.077	549.847	-99.156	60.869	540.669	-312.843	158.064	187.681	-126.686	-219.574	244.380	-444.596	86.269	169.425	-155.373	-223.877	236.206	-366.556	128.283	48.298	-151.607	-240.839	80.957	-325.561
	10	0.17500	-7.977	766.876	-241.919	-18.823	764.067	-185.595	2.869	769.685	-298.243	10.575	417.259	-164.610	-9.843	411.563	-317.898	47.917	64.748	-171.358	-260.038	160.509	-318.729	24.472	840.151	-232.833	18.737	841.037	-122.676	30.208	839.264	-342.989	-151.599	865.446	-214.774	-148.031	864.675	-267.401	38.989	422.420	-105.161	-6.339	401.945	-375.830	35.240	418.610	-225.684	16.699	400.865	-250.482	36.861	63.702	-135.541	-266.272	166.981	-354.106	55.209	60.157	-203.973	-261.784	164.564	-285.026	-80.064	1264.276	-213.409	21.678	1185.832	-161.929	32.748	1193.482	-266.877	24.707	1189.754	-217.763	29.076	1088.101	-227.248	130.340	581.856	-122.873	102.904	561.839	-384.620	65.831	607.732	-93.588	80.178	602.741	-317.777	66.386	549.080	-99.061	77.510	545.501	-310.868	158.762	186.802	-126.036	-195.602	243.915	-442.759	87.088	169.189	-154.978	-199.671	235.425	-364.700	128.358	48.132	-151.659	-211.725	81.905	-324.016
